<svg xmlns="http://www.w3.org/2000/svg" viewBox="0 0 24 24" width="31.88" height="32" fill="none" stroke="none">
    <linearGradient id="gradient" x1="0%" y1="0%" x2="100%" y2="100%">
        <stop offset="0%" stop-color="#85C1FF" />
        <stop offset="100%" stop-color="#FF85B3" />
    </linearGradient>
    <path fill="url(#gradient)" d="M12 2.162c3.313 0 3.688 0 4.973.072 1.285.072 2.43.53 3.293 1.393.863.863 1.321 2.008 1.393 3.293.072 1.285.072 1.66.072 4.973s0 3.688-.072 4.973c-.072 1.285-.53 2.43-1.393 3.293-.863.863-2.008 1.321-3.293 1.393-1.285.072-1.66.072-4.973.072s-3.688 0-4.973-.072c-1.285-.072-2.43-.53-3.293-1.393-.863-.863-1.321-2.008-1.393-3.293C2.162 15.823 2.162 15.448 2.162 12s0-3.688.072-4.973c.072-1.285.53-2.43 1.393-3.293C5.537 2.692 6.682 2.134 7.967 2.062 9.252 2 9.627 2 12 2zm0 5.838a6.162 6.162 0 1 0 0 12.324 6.162 6.162 0 0 0 0-12.324zm0 10.162a4 4 0 1 1 0-8 4 4 0 0 1 0 8zm4.5-10.5a1.5 1.5 0 1 1 0-3 1.5 1.5 0 0 1 0 3z" />
</svg>